<svg width="19" height="19" viewBox="0 0 19 19" fill="none" xmlns="http://www.w3.org/2000/svg">
<path d="M5.14132 18.6086L12.7666 10.9833C14.0782 9.67167 14.0782 7.54506 12.7666 6.23341C11.4549 4.92175 9.32833 4.92175 8.01667 6.23341L0.391402 13.8587C0.253729 13.9965 0.155933 14.1691 0.108387 14.358C-0.420519 17.0503 1.94867 19.4206 4.64093 18.8916C4.83033 18.8443 5.00358 18.7463 5.14132 18.6086ZM18.3699 5.38006C18.7733 4.97646 19 4.42914 19 3.85845C19 3.28776 18.7733 2.74044 18.3699 2.33684L16.6632 0.630137C16.2596 0.226661 15.7122 0 15.1416 0C14.5709 0 14.0235 0.226661 13.6199 0.630137C12.6774 1.57272 12.6774 3.10095 13.6199 4.04354L14.9565 5.38006C15.899 6.32264 17.4273 6.32264 18.3699 5.38006Z" fill="#FE61B2"/>
</svg>
