<svg width="35" height="28" viewBox="0 0 35 28" fill="none" xmlns="http://www.w3.org/2000/svg">
<path d="M21.5039 0.0918159C21.0106 0.237568 20.3827 0.876631 20.2482 1.39236C20.1809 1.62781 20.1249 2.65928 20.1249 3.69075V5.5743L10.7407 5.59672L1.34539 5.63036L0.930565 5.88823C0.706332 6.03398 0.403618 6.33669 0.257867 6.56092L0 6.97575V14.8239V22.672L0.257867 23.0869C0.403618 23.3111 0.706332 23.6138 0.930565 23.7596C1.33418 24.0174 1.41266 24.0174 5.33673 24.0735L9.32807 24.1295L9.20474 24.6341L9.08142 25.1386L8.31903 25.1946C7.32119 25.2619 7.2315 25.3852 7.2315 26.6185C7.2315 28.1209 6.73819 27.9975 12.8373 27.9975C18.9476 27.9975 18.4431 28.1209 18.4431 26.5961C18.4431 25.374 18.2974 25.1946 17.3332 25.1946C16.9632 25.1946 16.6381 25.1498 16.6044 25.1049C16.5708 25.0489 16.5035 24.8022 16.4362 24.5444L16.3353 24.0735H18.2189H20.1024L20.1361 25.3292C20.1921 26.7755 20.3715 27.2239 21.1115 27.6836L21.5263 27.9415H27.4124H33.2985L33.7134 27.6836C33.9376 27.5379 34.2403 27.2352 34.386 27.0109L34.6439 26.5961V13.9718V1.35873L34.3412 0.887842C33.747 -0.00908852 34.0161 0.0245476 27.5806 0.00212288C24.2171 -0.00908852 21.7169 0.0245476 21.5039 0.0918159ZM33.3209 1.33631L33.5788 1.57175V13.9718V26.3607L33.3322 26.6185L33.0967 26.8764H27.4236C20.6294 26.8764 21.246 27.0446 21.246 25.2395V24.0959L22.7932 24.0511C24.5422 24.0174 24.9347 23.8717 25.4167 23.0869L25.6746 22.672V14.8127V6.96454L25.3719 6.49365C24.8786 5.75369 24.5647 5.64157 22.7932 5.59672L21.246 5.55188V3.57863C21.246 1.70629 21.2572 1.59417 21.4927 1.34752L21.7281 1.08965H27.4012C33.0519 1.08965 33.0631 1.08965 33.3209 1.33631ZM24.3516 6.94212L24.6095 7.17756V14.8127V22.4366L24.3629 22.6944L24.1274 22.9523H12.8485H1.58084L1.32297 22.7057L1.0651 22.4702V14.8351V7.2112L1.31176 6.95333L1.5472 6.69546H12.8261H24.0938L24.3516 6.94212ZM15.2366 24.1632C15.2702 24.2192 15.3375 24.4659 15.4048 24.7238L15.5057 25.1946H12.8373H10.1689L10.2698 24.7238C10.3371 24.4659 10.4044 24.2192 10.438 24.1632C10.5165 24.0398 15.1581 24.0398 15.2366 24.1632ZM17.322 26.5961V26.8764H12.8373H8.35266V26.5961V26.3158H12.8373H17.322V26.5961Z" fill="#FE61B2"/>
<path d="M22.5917 1.87434C22.3899 2.07615 22.3675 2.24433 22.3675 3.33185C22.3675 5.18177 21.8742 5.0136 27.4127 5.0136C32.9513 5.0136 32.4579 5.18177 32.4579 3.33185C32.4579 1.48194 32.9513 1.65011 27.4127 1.65011C22.9617 1.65011 22.8047 1.66132 22.5917 1.87434ZM31.3368 3.33185V3.89244H27.4127H23.4886V3.33185V2.77127H27.4127H31.3368V3.33185Z" fill="#FE61B2"/>
<path d="M26.987 22.4814C26.8525 22.5262 26.561 22.6944 26.348 22.8738C25.025 23.9277 26.2134 26.114 27.8503 25.6431C29.4199 25.1946 29.4199 22.9523 27.8503 22.5038C27.4355 22.3805 27.3682 22.3805 26.987 22.4814ZM27.8391 23.6474C27.9176 23.7259 27.9736 23.9165 27.9736 24.0735C27.9736 24.4434 27.783 24.634 27.4131 24.634C27.0431 24.634 26.8525 24.4434 26.8525 24.0735C26.8525 23.9165 26.9085 23.7259 26.987 23.6474C27.1552 23.4792 27.6709 23.4792 27.8391 23.6474Z" fill="#FE61B2"/>
<path d="M1.85119 7.48032C1.62695 7.70456 1.62695 7.85031 1.62695 14.8239C1.62695 21.7976 1.62695 21.9433 1.85119 22.1676C2.07542 22.3918 2.22117 22.3918 12.8386 22.3918C23.456 22.3918 23.6017 22.3918 23.826 22.1676C24.0502 21.9433 24.0502 21.7976 24.0502 14.8239C24.0502 7.85031 24.0502 7.70456 23.826 7.48032C23.6017 7.25609 23.456 7.25609 12.8386 7.25609C2.22117 7.25609 2.07542 7.25609 1.85119 7.48032ZM22.929 14.8239V21.2706H12.8386H2.74812V14.8239V8.37725H12.8386H22.929V14.8239Z" fill="#FE61B2"/>
</svg>
