<svg width="47" height="50" viewBox="0 0 47 50" fill="none" xmlns="http://www.w3.org/2000/svg">
<path d="M11.6306 4.13639C5.2863 6.40022 0.0319681 8.30073 0.00401956 8.35662C-0.135723 8.46842 3.41375 39.0442 3.55349 39.2119C3.86092 39.5193 22.9498 50 23.2013 50C23.4529 50 42.5418 39.4913 42.8492 39.1839C42.9889 39.0442 46.5384 8.46842 46.3987 8.35662C46.3707 8.30073 41.7592 6.62381 36.1695 4.63946C30.5798 2.65511 25.3813 0.782558 24.5988 0.503075L23.2013 0L11.6306 4.13639ZM30.6916 22.0514C34.6603 30.9391 37.8743 38.2616 37.8743 38.3454C37.8743 38.4293 36.6167 38.4852 35.1074 38.4852H32.3405L30.8313 34.7121L29.35 30.9391H23.2013H17.0527L15.5714 34.7121L14.0622 38.4852H11.2952C9.78602 38.4852 8.52834 38.4293 8.52834 38.3454C8.52834 38.2616 11.6306 31.2465 15.4037 22.7501C19.2047 14.2538 22.4747 6.9033 22.6983 6.37227C22.9219 5.8692 23.2013 5.53382 23.3131 5.67356C23.4249 5.8133 26.7508 13.1917 30.6916 22.0514Z" fill="#FE61B2"/>
<path d="M21.1885 21.2128L19.2041 26.0479L21.1046 26.1318C22.1667 26.1877 23.9833 26.1877 25.1292 26.1318L27.2253 26.0479L25.4087 21.7159C24.4305 19.3403 23.5361 17.1603 23.3964 16.8808C23.2566 16.5175 22.6697 17.6634 21.1885 21.2128Z" fill="#FE61B2"/>
</svg>
