<svg width="50" height="50" viewBox="0 0 50 50" fill="none" xmlns="http://www.w3.org/2000/svg">
<path d="M23.4825 0.190716C23.1187 0.356083 21.7295 1.61289 20.3735 3.002L17.926 5.48254L20.7043 8.29382C23.2179 10.8736 23.5817 11.1382 24.7393 11.1382C26.9883 11.1382 29.2042 13.4533 28.8404 15.3716C28.7081 16.0993 29.105 16.6615 31.4202 18.9767C34.033 21.6226 34.1984 21.7218 35.6206 21.7218C36.9435 21.7218 37.2743 21.8872 38.1673 22.8794C39.6556 24.5992 39.6225 26.3852 38.0019 27.8736C36.4474 29.3619 34.7276 29.428 33.1731 28.0389C32.247 27.2121 32.0817 26.8483 32.0486 25.3599C31.9825 23.6732 31.9163 23.5409 29.5681 21.1926C28.212 19.8366 27.0214 18.7452 26.8891 18.7452C26.7237 18.7452 26.6245 21.788 26.6245 25.4922V32.2393L27.5836 33.2315C28.8735 34.5214 29.1712 35.7121 28.5097 37.1343C27.7159 38.7549 26.5914 39.3502 24.64 39.1848C23.4494 39.0525 22.821 38.821 22.358 38.2257C21.498 37.2335 21.2004 35.679 21.5972 34.6206C21.9611 33.7607 23.1848 32.3055 23.5817 32.3055C23.714 32.3055 23.7801 29.1634 23.714 25.2938L23.6148 18.2821L22.5564 17.3891C21.5972 16.5954 21.498 16.3308 21.5311 14.8424C21.5311 13.1557 21.5311 13.1557 18.7198 10.3444L15.8755 7.50005L7.93773 15.4378L0 23.3755V25.0292V26.6829L11.6751 38.3249L23.3171 50H24.9708H26.6245L38.2665 38.3249L49.9416 26.6829V25.0292V23.3755L38.3326 11.7666C27.5506 0.984489 26.6576 0.157642 25.4338 0.0253448C24.7393 -0.040802 23.8463 0.0253448 23.4825 0.190716Z" fill="#FE61B2"/>
</svg>
