<svg width="51" height="50" viewBox="0 0 51 50" fill="none" xmlns="http://www.w3.org/2000/svg">
<path d="M19.2375 0.552891C16.61 1.24096 14.4829 2.42944 13.4194 3.71175C12.5435 4.74385 12.5122 4.9315 12.5122 7.99653V11.2179H18.7683C24.8055 11.2179 25.0244 11.2492 25.0244 11.8435C25.0244 12.469 24.8055 12.469 14.9208 12.469H4.84849L3.75367 13.376C1.40762 15.3151 0 19.6311 0 24.9793C0 30.3275 1.40762 34.6435 3.75367 36.5826C4.78592 37.4583 4.97361 37.4896 8.00782 37.4896H11.1672L11.3548 34.1431C11.6676 28.9201 12.8563 26.418 15.5777 25.1982C16.8289 24.6665 18.0489 24.5414 24.6178 24.3225C31.781 24.0723 32.3128 24.0097 33.8768 23.2904C35.5347 22.4772 36.0978 21.7579 36.911 19.3497C37.13 18.6929 37.349 15.4715 37.4428 11.5307L37.5992 4.8064L36.6608 3.71175C35.5347 2.39816 33.0635 1.08458 30.4047 0.459061C27.7771 -0.197731 21.7713 -0.135178 19.2375 0.552891ZM19.5816 4.43109C20.739 5.46319 20.739 6.96443 19.5816 7.99653C19.1124 8.37184 18.4555 8.71588 18.1114 8.71588C17.2669 8.71588 15.6403 7.05826 15.6403 6.21381C15.6403 5.36937 17.2669 3.71175 18.1114 3.71175C18.4555 3.71175 19.1124 4.05578 19.5816 4.43109Z" fill="#FE61B2"/>
<path d="M38.6943 15.6592C38.3502 20.976 37.3493 23.1654 34.5653 24.5102C32.9074 25.3234 32.5946 25.3547 25.2437 25.6049C16.9544 25.8863 15.8908 26.1053 14.5145 27.7316C13.1381 29.3267 12.7628 31.4847 12.6064 38.5843L12.45 45.1522L13.3884 46.2469C15.3903 48.6239 19.707 50 25.0247 50C30.3737 50 34.6904 48.5926 36.6298 46.2469C37.5057 45.2148 37.537 45.0271 37.537 41.9621V38.7407H31.2808C25.2437 38.7407 25.0247 38.7094 25.0247 38.1152C25.0247 37.4897 25.2437 37.4897 35.1284 37.4897H45.2007L46.2955 36.5827C48.6415 34.6436 50.0492 30.3275 50.0492 24.9793C50.0492 19.6312 48.6415 15.3151 46.2955 13.376C45.2632 12.5003 45.0756 12.469 42.0414 12.469H38.882L38.6943 15.6592ZM33.5018 42.1498C34.0023 42.6502 34.4089 43.3695 34.4089 43.7448C34.4089 44.5893 32.7823 46.2469 31.9377 46.2469C30.8742 46.2469 29.623 44.902 29.623 43.7448C29.623 42.9942 29.8419 42.4938 30.4675 41.9621C31.5936 40.9926 32.3757 41.0551 33.5018 42.1498Z" fill="#FE61B2"/>
</svg>
