<svg width="39" height="50" viewBox="0 0 39 50" fill="none" xmlns="http://www.w3.org/2000/svg">
<path d="M17.5914 6.21264V12.4251L17.2352 12.3439C15.8164 12.0126 13.4852 11.9314 11.8102 12.1501C8.54767 12.5814 5.96642 13.7314 3.91017 15.6626C2.91017 16.6001 2.12892 17.6814 1.42892 19.0939C0.760173 20.4439 0.347673 21.8064 0.085173 23.5939C-0.027327 24.3314 -0.027327 27.0564 0.078923 27.9376C0.635173 32.4189 2.63517 35.4314 6.24767 37.2376C7.48517 37.8564 8.67267 38.2376 10.4039 38.5876C13.8727 39.2751 19.6414 39.0439 25.1414 37.9939L25.8414 37.8564V18.9314V0.000133514H21.7164H17.5914V6.21264ZM16.3727 18.7876C16.6852 18.8376 17.0852 18.9189 17.2664 18.9751L17.5914 19.0689V25.5939V32.1189L17.3914 32.1501C16.3977 32.3064 14.4164 32.3751 13.7102 32.2814C12.0539 32.0501 11.0352 31.5876 10.0914 30.6314C9.06642 29.5939 8.57267 28.3689 8.39767 26.4251C8.18517 24.0376 8.82267 21.8001 10.0852 20.4814C11.5227 18.9751 13.7852 18.3689 16.3727 18.7876Z" fill="#FE61B2"/>
<path d="M30.5908 4.21875V8.4375H34.7158H38.8408V4.21875V0H34.7158H30.5908V4.21875Z" fill="#FE61B2"/>
<path d="M30.5909 22.2C30.5909 27.525 30.5597 32.4062 30.5284 33.1875C30.3847 36.4625 30.0597 38.4688 29.4347 40.0312C28.3659 42.6875 26.8847 44.1562 23.5347 45.8937L22.5659 46.4L23.1597 46.6875C23.4847 46.8438 24.6909 47.4188 25.8409 47.9625C26.9909 48.5125 28.4222 49.1937 29.0222 49.4812C29.6159 49.7687 30.1472 50 30.1972 50C30.4409 50 32.2847 48.9375 33.2722 48.2312C34.9784 47.0062 36.1222 45.625 37.0659 43.6562C38.1784 41.3187 38.5972 39.2063 38.7784 34.9062C38.8097 34.1125 38.8409 28.8062 38.8409 23.0437V12.625H34.7159H30.5909V22.2Z" fill="#FE61B2"/>
</svg>
