<svg width="38" height="50" viewBox="0 0 38 50" fill="none" xmlns="http://www.w3.org/2000/svg">
<path d="M24.0041 1.39582C23.8303 4.64206 22.6717 6.47773 18.5393 9.95584C13.3834 14.3035 12.0703 15.8879 12.0703 17.7623C12.0703 18.7284 12.5724 20.139 13.2869 21.2017C13.982 22.2452 17.8441 26.5155 18.0758 26.5155C18.1917 26.5155 17.9213 26.0131 17.5158 25.4141C15.102 21.8394 14.2717 19.9071 14.4841 18.3999C14.7544 16.5836 15.1986 15.9652 18.9834 12.2166C22.8262 8.41001 23.8689 7.05741 24.4675 5.1831C24.9117 3.77253 24.8731 1.26056 24.3903 0.333065C24.0813 -0.227299 24.0813 -0.207975 24.0041 1.39582Z" fill="#FE61B2"/>
<path d="M26.8431 10.7481C23.7728 12.0041 21.7645 13.2794 20.3935 14.8446C19.5052 15.8493 18.8293 17.4725 18.8293 18.5932C18.8293 19.6559 19.4859 21.2984 20.5093 22.8056C22.0155 25.0084 22.228 25.9165 21.5328 27.443L21.1659 28.2739L21.7066 27.8875C22.5176 27.3078 23.6569 25.9745 23.9659 25.2402C24.4486 24.1002 24.3135 23.0374 23.5218 21.7621C21.2624 18.0908 21.1466 17.7043 21.919 16.1392C22.6142 14.7286 23.9852 13.3953 26.5535 11.6563C29.2955 9.8013 29.3148 9.72401 26.8431 10.7481Z" fill="#FE61B2"/>
<path d="M31.7663 27.076C31.3801 27.1919 31.4767 27.2305 32.2877 27.3271C34.6822 27.559 35.9181 29.8391 34.8367 32.0612C34.3926 32.9694 32.3263 34.979 31.0326 35.7326C30.0284 36.3316 30.067 36.4668 31.1291 36.0997C33.4657 35.2688 35.7443 33.7037 36.5167 32.4091C37.1346 31.327 37.2312 29.6072 36.7098 28.7184C35.8601 27.3078 33.6008 26.5542 31.7663 27.076Z" fill="#FE61B2"/>
<path d="M8.49739 27.9456C7.55118 28.1968 6.18015 28.6799 5.46566 29.0277C3.86291 29.7619 3.74705 30.2064 4.98291 30.6508C6.45049 31.1918 8.22704 31.385 12.8808 31.4817C17.8243 31.5976 21.2422 31.385 24.525 30.7474C26.2629 30.4189 28.5994 29.6653 28.4256 29.4914C28.387 29.4528 27.016 29.588 25.3746 29.8006C19.7939 30.4962 12.9967 30.7667 9.81049 30.3996C8.3429 30.2257 7.37739 29.7813 7.55118 29.3562C7.68635 28.989 8.67118 28.448 10.1195 27.9456C11.8574 27.3466 10.8339 27.3466 8.49739 27.9456Z" fill="#FE61B2"/>
<path d="M9.34805 33.665C7.1853 34.8051 8.18943 36.061 11.8198 36.6987C13.1329 36.9306 14.446 36.9692 17.5743 36.8919C21.3977 36.8146 23.0584 36.6214 26.1673 35.9258L27.2101 35.6939L26.2639 35.0756L25.2984 34.4572L23.9467 34.7278C20.5094 35.3847 16.2032 35.5586 12.8818 35.1915C10.4874 34.9403 10.0432 34.7278 10.0625 33.8969C10.0818 33.5491 10.0818 33.2786 10.0625 33.2786C10.0625 33.2979 9.73426 33.4525 9.34805 33.665Z" fill="#FE61B2"/>
<path d="M10.7379 39.2105C10.371 39.4037 9.94615 39.7515 9.79167 39.9834C9.54063 40.3892 9.55994 40.4665 10.0813 40.9882C10.4482 41.3553 11.2206 41.7418 12.2827 42.0896C13.8275 42.592 14.0786 42.6113 17.5737 42.6113C20.8758 42.6113 21.4165 42.5534 23.0772 42.1283C24.0813 41.8577 25.2206 41.5099 25.5875 41.336L26.2634 41.0462L25.1047 40.5245L23.9461 40.0027L21.3392 40.2346C18.1723 40.5438 12.9779 40.4085 12.1475 40.0221C11.8579 39.8675 11.5489 39.5583 11.491 39.3071C11.3944 38.882 11.3944 38.882 10.7379 39.2105Z" fill="#FE61B2"/>
<path d="M4.73248 42.7466C2.53111 43.133 -0.268892 44.7755 0.0207631 45.5097C0.349039 46.3986 5.3311 47.2101 12.6304 47.5773C23 48.0797 34.8566 46.0894 34.8566 43.8093C34.8566 43.5581 34.7793 43.2876 34.6635 43.2296C34.5669 43.1717 34.4704 43.2683 34.4704 43.4808C34.4704 45.046 29.72 46.0314 20.2773 46.4179C12.2056 46.7464 4.50076 46.0121 3.22628 44.7948C2.64697 44.2344 3.72834 43.4422 5.8911 42.8625C6.818 42.6113 6.85662 42.5727 6.27731 42.592C5.91041 42.592 5.21524 42.6693 4.73248 42.7466Z" fill="#FE61B2"/>
<path d="M35.8219 46.6499C31.9019 48.6015 23.3668 49.7029 14.1944 49.4324C11.7034 49.3551 9.30887 49.2585 8.88404 49.2198C8.43991 49.1812 8.65232 49.2585 9.3668 49.4131C11.3944 49.8768 19.0413 50.1473 23.6178 49.9155C29.0826 49.6449 32.8095 48.93 35.3392 47.616C36.073 47.2489 37.135 46.2828 36.9613 46.1668C36.9226 46.1475 36.4013 46.3601 35.8219 46.6499Z" fill="#FE61B2"/>
</svg>
