<svg width="50" height="50" viewBox="0 0 50 50" fill="none" xmlns="http://www.w3.org/2000/svg">
<path d="M0 25V50H25H50V25V0H25H0V25ZM40 22.8365C41.4135 23.125 42.4519 23.7019 43.4231 24.7212C43.9808 25.3173 44.7789 26.4038 44.7019 26.4808C44.6827 26.5 44.1058 26.875 43.4135 27.3077C42.7308 27.75 41.9135 28.2788 41.6058 28.4808C41.2981 28.6923 41.0289 28.8462 41.0192 28.8269C41 28.8173 40.8558 28.5962 40.6923 28.3462C39.9904 27.3173 38.9808 26.7788 37.8846 26.8558C36.5289 26.9423 35.6346 27.875 35.8173 29.0192C36.0096 30.2885 36.5289 30.7019 39.5192 31.9712C41.2019 32.6923 41.8077 32.9904 42.7404 33.5962C44.3462 34.6442 45.3365 35.8365 45.7789 37.2692C45.9808 37.9327 46.0096 38.2115 46.0096 39.4712C46.0096 40.7404 45.9808 41 45.7789 41.625C45.1635 43.4904 43.7115 44.8558 41.5865 45.5673C40.4423 45.9423 39.625 46.0673 38.2212 46.0673C36.3173 46.0673 35 45.7788 33.3654 44.9808C32.4615 44.5385 32.2596 44.3942 31.3942 43.5192C30.5577 42.6827 29.7115 41.5577 29.7115 41.2885C29.7115 41.2404 30.0289 41.0192 30.4135 40.8077C30.7885 40.5865 31.6346 40.0962 32.2885 39.7212C32.9327 39.3462 33.5 39.0385 33.5385 39.0385C33.5769 39.0385 33.75 39.2596 33.9327 39.5192C34.3942 40.2019 35.375 41.0865 35.9808 41.375C36.7789 41.7404 37.4231 41.8558 38.4039 41.7981C40.2596 41.6923 41.2692 40.8942 41.2692 39.5192C41.2692 38.2692 40.6346 37.6923 37.9712 36.5385C34.0096 34.8269 32.7789 33.9519 31.8846 32.2212C31.2885 31.0577 31.1154 30.375 31.1154 29.0385C31.1058 27.7788 31.2308 27.1635 31.6827 26.2019C32.375 24.7596 33.8365 23.5288 35.5289 22.9808C36.6923 22.6058 38.5962 22.5385 40 22.8365ZM27.1539 22.9615C27.2596 23.125 27.2308 39.9519 27.125 40.5769C26.7404 42.8846 25.6538 44.4423 23.8173 45.3269C22.8269 45.8173 22.375 45.9327 21.0962 46.0577C19.8462 46.1731 18.5 46.0385 17.3942 45.6827C15.625 45.1154 14.2788 43.9712 13.2788 42.1731C13.0769 41.8269 13.0769 41.7981 13.2404 41.6827C13.5673 41.4423 16.8558 39.4712 16.9327 39.4712C16.9712 39.4712 17.2212 39.7981 17.4808 40.2019C17.7404 40.5962 18.125 41.0673 18.3269 41.2308C19.3942 42.125 21.375 41.9615 22.0096 40.9327C22.1154 40.7596 22.25 40.3942 22.3077 40.1346C22.375 39.8173 22.4231 36.7308 22.4423 31.2981C22.4615 26.6923 22.4808 22.9231 22.4904 22.9038C22.5192 22.8462 27.1154 22.8942 27.1539 22.9615Z" fill="#FE61B2"/>
</svg>
