<svg width="51" height="50" viewBox="0 0 51 50" fill="none" xmlns="http://www.w3.org/2000/svg">
<path d="M2.15308 0.0589027C1.21879 0.297443 0.652259 0.774525 0.234813 1.68893C-0.0037272 2.20577 -0.0236056 2.35485 0.0161512 3.09035C0.0757863 4.23336 0.443536 4.93904 2.14314 7.17536C3.77316 9.31229 4.09122 9.849 4.36951 10.8628C4.7472 12.2046 5.761 14.9776 6.30766 16.1206C6.91395 17.4028 7.60969 18.5259 8.14641 19.0924C8.60361 19.5695 8.63343 19.6689 8.40483 20.1858C8.31537 20.4044 8.14641 20.961 8.03708 21.4282C7.93768 21.8953 7.75878 22.6109 7.64945 23.0184C7.17237 24.7478 7.01334 27.2426 7.25188 29.1807C7.47054 30.9598 8.07683 32.8185 8.86203 34.1205C9.30929 34.8759 10.2237 35.8002 10.7405 36.0388C11.6549 36.4463 12.8178 36.2077 13.3048 35.4921C13.6428 34.9951 13.772 34.5379 13.9608 33.2558C14.0503 32.6296 14.1795 31.8444 14.2491 31.5164L14.3783 30.9201L15.1237 32.411C15.5412 33.226 16.0779 34.1702 16.3164 34.4982C17.0022 35.4325 18.3043 36.7544 19.5665 37.8079C20.2026 38.3347 21.0276 39.0603 21.3953 39.428C22.101 40.1138 22.8564 40.6207 22.8564 40.4021C22.8564 40.3424 22.6874 40.1436 22.4887 39.9747C20.2026 38.0663 16.7736 32.6892 15.0641 28.3359C14.8057 27.6799 14.5572 27.0438 14.5075 26.9146C14.4578 26.7953 14.3584 26.6959 14.2888 26.7059C14.09 26.7158 12.9172 28.2763 12.619 28.9322C12.2314 29.7969 12.0426 30.602 11.804 32.5402C11.5655 34.4385 11.5456 34.4584 10.9393 34.0112C10.4821 33.6732 10.174 33.1961 9.72674 32.1128C9.01112 30.3933 8.67318 28.3259 8.77258 26.199C8.85209 24.5789 9.04093 23.6048 9.63728 21.9351C10.4921 19.49 10.4821 19.1024 9.54783 18.1085C8.36507 16.8561 7.7389 15.6237 6.69528 12.4332C6.28778 11.1809 5.77094 9.77943 5.56222 9.32222C5.13483 8.4277 4.25025 7.08591 3.11718 5.65467C2.29223 4.60111 1.84496 3.86561 1.69587 3.26926C1.53685 2.67291 1.73563 2.20577 2.24253 1.99704C2.75937 1.78832 3.3756 1.91753 4.92611 2.58346C6.42693 3.2295 7.48048 3.82586 8.22592 4.46196C8.53403 4.73032 8.90178 4.99868 9.04093 5.06825C9.18008 5.13783 9.96528 5.24716 10.7803 5.31673C12.9769 5.4857 13.4937 5.58509 14.6268 6.03236C17.1215 7.01633 19.7156 8.64636 22.1706 10.7733C25.4704 13.616 28.5615 17.8202 29.8635 21.2194C30.0424 21.6866 30.4897 22.7202 30.8574 23.5154C31.2252 24.3105 32.0402 26.0698 32.6664 27.4414C33.9585 30.2641 34.5449 31.3077 35.181 31.9736C35.5885 32.3911 35.7475 32.4706 37.0297 32.888C40.2599 33.9515 40.9358 34.2696 42.7348 35.5418C43.2019 35.8698 44.2058 36.5556 44.981 37.0724C45.7563 37.5893 46.4818 38.1359 46.6111 38.295L46.8297 38.5732L45.2494 38.6329C44.3847 38.6726 43.2616 38.772 42.7447 38.8615C41.8005 39.0305 39.2163 39.8256 38.9181 40.0442C38.6796 40.2232 38.6995 40.4816 38.9877 41.1177C39.4449 42.1215 40.3792 43.2347 41.4327 44.0299C43.0131 45.2226 43.5399 45.5406 45.3488 46.4153C46.3029 46.8625 47.3664 47.439 47.7143 47.6676C48.6287 48.2938 49.8711 49.2281 50.388 49.6952C50.7358 50.0133 50.8352 50.0629 50.865 49.9337C50.9247 49.6455 50.378 48.7212 49.8015 48.1546C49.4934 47.8564 48.7778 47.0911 48.2013 46.4749C46.9291 45.0934 46.1539 44.4771 44.4344 43.4434C43.0528 42.6185 42.1384 41.883 41.88 41.396C41.7409 41.1177 41.7409 41.1077 41.9595 41.1077C42.0887 41.1077 42.7944 40.9587 43.5299 40.7698C44.2654 40.5909 45.3388 40.3822 45.9153 40.3225C46.4918 40.253 47.4658 40.0641 48.0821 39.8952C49.0163 39.6467 49.1952 39.5672 49.1952 39.3982C49.1952 39.0901 47.7044 37.3408 46.7999 36.5755C45.5774 35.5418 43.7386 34.1801 42.3968 33.3055C41.3433 32.6197 38.7392 31.3375 37.4968 30.9002C37.2682 30.8207 36.9402 30.5921 36.7713 30.4032C36.2346 29.7969 33.1435 23.3365 31.8315 20.0864C31.2948 18.7545 30.7978 17.8302 29.8834 16.4586C27.8061 13.3277 25.7288 11.0119 23.0254 8.77557C21.455 7.47354 18.4732 5.47576 17.042 4.76014C15.7399 4.10415 13.2055 3.43823 11.973 3.42829C10.6113 3.41835 10.2038 3.31896 9.7168 2.90151C8.56385 1.90759 6.16851 0.645317 4.71739 0.267628C3.77316 0.019146 2.67985 -0.0703049 2.15308 0.0589027Z" fill="#FE61B2"/>
<path d="M11.0288 8.55697C10.9493 8.57685 10.7108 8.6166 10.512 8.65636C10.3032 8.68618 10.1343 8.74581 10.1343 8.78557C10.1343 8.82533 10.3828 9.1732 10.6909 9.55089C10.999 9.93852 11.4363 10.6144 11.655 11.0616C11.8836 11.5188 12.1221 11.8866 12.1817 11.8866C12.4799 11.8866 12.9172 11.0318 12.9172 10.4454C12.9172 9.9087 12.5097 9.20302 11.983 8.82533C11.5456 8.52715 11.3966 8.48739 11.0288 8.55697Z" fill="#FE61B2"/>
</svg>
