<svg width="57" height="50" viewBox="0 0 57 50" fill="none" xmlns="http://www.w3.org/2000/svg">
<path d="M15.4003 0.109673C13.2701 0.679619 11.8065 2.33946 11.1499 4.93922C10.7239 6.63406 10.6587 8.99384 10.9795 11.4536C11.1299 12.6135 11.4356 14.2483 11.6762 15.1533C11.7263 15.3582 11.7564 15.5382 11.7363 15.5582C11.7163 15.5732 11.611 15.6132 11.5008 15.6432C9.75147 16.1432 7.95206 16.8181 6.48847 17.523C2.72423 19.3379 0.604029 21.4927 0.0727253 24.0274C-0.0275207 24.4974 -0.0225084 25.5023 0.0777376 25.9922C0.27823 26.9722 0.75941 27.9721 1.41101 28.777C1.70673 29.137 2.6691 30.0819 3.0801 30.4068C4.10763 31.2268 5.88198 32.2617 7.26537 32.8466C7.47088 32.9366 7.68641 33.0266 7.74154 33.0516C8.26783 33.2916 9.50587 33.7365 10.6737 34.1015C11.9017 34.4915 11.7915 34.3815 11.6211 35.0614C11.5709 35.2714 11.4557 35.7913 11.3704 36.2113C10.9494 38.3161 10.774 39.9009 10.774 41.5708C10.774 43.8406 11.1248 45.5504 11.8817 46.9953C12.5684 48.3102 13.5257 49.1901 14.8039 49.695C15.5156 49.98 15.7512 50.01 17.1496 49.99C18.3877 49.97 18.4328 49.965 18.9942 49.81C20.0317 49.525 21.4903 48.9101 22.3374 48.4001C22.5178 48.2902 22.6732 48.2002 22.6832 48.2002C22.7083 48.2002 23.2195 47.8802 23.7308 47.5352C24.1518 47.2553 24.4676 47.0253 25.4851 46.2504C25.9262 45.9154 26.663 45.2754 27.5802 44.4305L28.1717 43.8856L28.3822 44.0806C28.4925 44.1905 28.6127 44.3005 28.6428 44.3305C28.6929 44.3855 29.6854 45.2804 30.0262 45.5754C30.357 45.8654 31.2041 46.5353 31.6753 46.8803C32.8682 47.7552 33.8205 48.3452 34.9082 48.8751C35.9608 49.3901 36.5222 49.595 37.5647 49.855C38.1411 49.995 38.2113 50 39.329 50C40.6272 50 40.8778 49.965 41.5996 49.665C42.9329 49.1201 43.8451 48.2302 44.5719 46.7753C45.4741 44.9555 45.7698 42.1857 45.409 38.976C45.3037 38.0511 45.0581 36.6363 44.8275 35.6013C44.6972 35.0364 44.592 34.5464 44.5869 34.5065C44.5869 34.4615 44.6571 34.4115 44.7574 34.3815C45.1984 34.2615 46.642 33.7915 47.1382 33.6115C49.5341 32.7466 51.539 31.7067 53.0527 30.5568C53.2181 30.4318 53.3986 30.2918 53.4537 30.2518C53.5088 30.2119 53.7745 29.9619 54.0452 29.7019C55.2882 28.507 56.01 27.3021 56.2606 25.9872C56.3458 25.5273 56.3608 24.5524 56.2806 24.1224C56.0451 22.8075 55.3985 21.6677 54.2306 20.4978C53.8597 20.1278 53.4988 19.7778 53.4286 19.7228C52.366 18.9079 51.6042 18.423 50.3962 17.798C48.8925 17.0231 47.1933 16.3531 45.0681 15.7032C44.6471 15.5782 44.5569 15.5332 44.5769 15.4632C44.6872 15.0833 45.023 13.5334 45.1333 12.9035C45.1784 12.6435 45.2235 12.3735 45.2385 12.3035C45.2486 12.2335 45.2937 11.9086 45.3388 11.5786C45.5142 10.2737 45.5543 9.53879 45.5343 8.15392C45.5142 6.44908 45.4039 5.63915 45.018 4.35427C44.7523 3.47935 44.3714 2.72943 43.8251 2.02949C43.1284 1.12957 42.3314 0.56963 41.2187 0.194664L40.7225 0.0296783H39.3441C37.9958 0.0296783 37.9557 0.0346794 37.4394 0.169666C36.9432 0.299652 36.4971 0.449638 35.8204 0.704617C35.3994 0.864601 34.0912 1.53454 33.4797 1.9045C32.5424 2.47445 31.5199 3.20938 30.5224 4.01931C29.8608 4.55925 29.4398 4.92922 28.5025 5.80414C28.3421 5.95412 28.1867 6.07911 28.1667 6.07911C28.1416 6.07911 27.9561 5.91913 27.7556 5.72915C27.2544 5.24919 26.262 4.37927 25.8359 4.0393C25.7808 3.99931 25.5953 3.84432 25.4199 3.70433C24.7533 3.16439 23.3198 2.17448 22.5028 1.69452C21.1745 0.919594 19.736 0.34465 18.4729 0.0796738C17.8814 -0.0403137 15.8865 -0.0203171 15.4003 0.109673ZM18.3125 2.60444C19.8112 2.9894 21.385 3.80933 23.2045 5.1542C23.5203 5.38918 23.7909 5.58916 23.806 5.60416C23.821 5.61916 24.0215 5.78414 24.2571 5.97412C24.8636 6.45908 25.2645 6.81404 25.7908 7.319C26.0465 7.56397 26.2921 7.78895 26.3422 7.82895C26.4274 7.88894 26.4023 7.92894 26.0364 8.3339C25.8159 8.57888 25.6254 8.78886 25.6054 8.80386C25.5903 8.81886 25.445 8.98384 25.2846 9.17882C25.1242 9.3688 24.9638 9.55379 24.9387 9.58379C24.9087 9.61878 24.8184 9.72877 24.7332 9.83376C24.653 9.93875 24.5478 10.0587 24.5077 10.1037C24.3974 10.2237 23.6656 11.1286 23.3749 11.5036C22.8937 12.1235 21.776 13.6184 21.7108 13.7284C21.6908 13.7634 21.375 13.8184 20.8738 13.8734C18.6333 14.1134 15.681 14.5883 14.3277 14.9283C14.1924 14.9633 14.1924 14.9583 14.0671 14.4183C13.5508 12.2135 13.3353 10.6987 13.2952 8.90385C13.2551 7.07402 13.3754 6.05911 13.7613 4.94922C14.052 4.10929 14.3427 3.62934 14.8139 3.18938C15.6409 2.42445 16.8389 2.22447 18.3125 2.60444ZM40.1009 2.48445C41.2638 2.70443 42.1209 3.56435 42.5971 4.99421C42.958 6.06911 43.0782 7.13901 43.0381 8.87385C43.0081 10.1937 42.9128 11.1236 42.6722 12.4535C42.552 13.1285 42.166 14.9033 42.1359 14.9333C42.1309 14.9383 41.6999 14.8583 41.1836 14.7483C39.4894 14.3983 37.0234 14.0234 35.2591 13.8484L34.6526 13.7934L34.5072 13.5834C33.9107 12.7385 32.2868 10.6237 31.8306 10.0937C31.6402 9.87376 31.55 9.76377 31.3495 9.52379C31.2392 9.3938 30.8683 8.97384 30.5325 8.59388L29.9109 7.89894L30.332 7.50898C31.9309 6.01912 33.4145 4.86423 34.8731 3.97931C34.9884 3.90932 35.5498 3.59935 35.8906 3.41936C36.3467 3.17439 37.3893 2.76442 37.9206 2.62944C38.8027 2.39446 39.4243 2.35446 40.1009 2.48445ZM29.0438 10.6737C29.2092 10.8637 29.54 11.2586 29.7806 11.5486C30.0212 11.8386 30.2969 12.1685 30.3871 12.2785C30.4773 12.3885 30.738 12.7135 30.9585 13.0035L31.3645 13.5284H28.1667C26.0414 13.5284 24.9788 13.5134 25.0039 13.4784C25.029 13.4484 25.1242 13.3284 25.2144 13.2034C25.5903 12.7035 26.4775 11.6286 27.1893 10.8087C27.6003 10.3287 27.9862 9.88876 28.0413 9.82376L28.1416 9.70377L28.4423 10.0187C28.6077 10.1887 28.8784 10.4837 29.0438 10.6737ZM31.174 16.0532C31.7104 16.0782 32.402 16.1132 32.7078 16.1332L33.2642 16.1682L33.8356 17.0181C34.1513 17.488 34.417 17.898 34.427 17.928C34.437 17.953 34.4972 18.043 34.5573 18.128C34.6977 18.318 35.9558 20.4128 36.2114 20.8777C36.3116 21.0677 36.4169 21.2477 36.4369 21.2777C36.5121 21.3727 37.2139 22.6926 37.8003 23.8375L38.3917 24.9973L37.9056 25.9622C37.4996 26.7722 36.6876 28.287 36.2365 29.077C36.1763 29.1869 36.066 29.3769 35.9959 29.5019C35.4345 30.4918 34.4771 32.0167 33.6651 33.2316L33.2592 33.8415L32.6827 33.8715C29.545 34.0515 26.6981 34.0515 23.6456 33.8715L23.0591 33.8365L22.5128 33.0066C22.212 32.5516 21.791 31.8967 21.5755 31.5517C21.365 31.2068 21.1494 30.8718 21.1043 30.8018C21.0642 30.7318 20.9991 30.6318 20.969 30.5768C20.9389 30.5218 20.7585 30.2169 20.573 29.9019C20.3876 29.5869 20.1771 29.2269 20.1069 29.102C20.0417 28.977 19.9114 28.752 19.8212 28.602C19.6107 28.247 18.8438 26.7972 18.3375 25.7873L17.9416 25.0023L18.533 23.8375C19.1596 22.6126 19.6959 21.6177 19.9766 21.1477C20.0718 20.9927 20.147 20.8527 20.147 20.8327C20.147 20.8127 20.2021 20.7177 20.2673 20.6128C20.3324 20.5128 20.6382 19.9978 20.954 19.4779C21.4502 18.6479 22.2872 17.3181 22.8737 16.4481L23.0591 16.1682L23.7207 16.1282C24.0866 16.1082 24.6981 16.0732 25.0841 16.0532C26.1667 15.9982 30.0814 15.9982 31.174 16.0532ZM19.5706 16.9381C18.4428 18.7729 17.6208 20.1828 16.9391 21.4777C16.7938 21.7526 16.6584 21.9926 16.6434 22.0126C16.6083 22.0526 16.3477 21.4327 15.8514 20.1278C15.4505 19.0729 14.874 17.3931 14.9091 17.3631C14.9793 17.2931 17.7962 16.7781 19.2949 16.5631C19.8914 16.4781 19.8713 16.4481 19.5706 16.9381ZM37.2991 16.6031C38.7927 16.8181 41.2588 17.2681 41.3941 17.3481C41.4793 17.4031 40.7525 19.4979 40.0358 21.2777C39.8704 21.6877 39.725 22.0376 39.715 22.0476C39.71 22.0526 39.6097 21.8876 39.4995 21.6727C39.3892 21.4527 39.2087 21.1177 39.1035 20.9277C38.9982 20.7327 38.8378 20.4478 38.7526 20.2878C38.6624 20.1328 38.5371 19.9128 38.4669 19.8028C38.3968 19.6928 38.3416 19.5978 38.3416 19.5878C38.3416 19.5578 37.8404 18.6929 37.7401 18.5529C37.695 18.483 37.6449 18.403 37.6349 18.378C37.6098 18.313 37.2088 17.648 36.8129 17.0131C36.6374 16.7331 36.5121 16.5031 36.5372 16.5031C36.5623 16.5031 36.9031 16.5481 37.2991 16.6031ZM12.7739 18.9429C12.9543 19.4829 13.1598 20.0828 13.23 20.2778C13.8265 21.8126 13.9869 22.2176 14.2575 22.8775C14.433 23.2875 14.7086 23.9424 14.8791 24.3224L15.1848 25.0173L15.0846 25.2223C14.9242 25.5623 14.2325 27.1471 14.2325 27.1771C14.2325 27.1921 14.1874 27.3021 14.1372 27.4171C13.8315 28.0971 13.4455 29.127 12.8691 30.8068L12.4431 32.0317L11.8967 31.8767C8.08238 30.7818 4.78429 28.987 3.41092 27.2571C2.76433 26.4422 2.49367 25.7973 2.48865 25.0523C2.48364 24.5024 2.56384 24.1824 2.8345 23.6225C3.63146 21.9926 5.87697 20.3828 9.20513 19.0529C9.79157 18.8129 12.1925 18.003 12.428 17.958C12.4431 17.958 12.5985 18.398 12.7739 18.9429ZM44.6822 18.198C45.0431 18.308 45.6496 18.5079 46.0355 18.6479C46.7021 18.8829 46.8375 18.9329 47.1883 19.0829C47.2735 19.1179 47.459 19.1929 47.6094 19.2529C48.5767 19.6328 50.0403 20.3878 50.8222 20.9177C51.8949 21.6377 52.7369 22.4176 53.2131 23.1375C53.965 24.2574 54.0552 25.2173 53.5239 26.3372C52.5765 28.332 49.4138 30.3168 44.9579 31.7167C44.5569 31.8417 44.1509 31.9667 44.0556 31.9867L43.8852 32.0317L43.4742 30.8318C42.978 29.3819 42.4868 28.0471 42.2262 27.4771C42.1911 27.3971 41.9956 26.9472 41.8001 26.4822C41.6046 26.0172 41.3741 25.4923 41.2939 25.3173L41.1435 24.9923L41.2738 24.7174C41.9806 23.2275 43.0031 20.6377 43.5895 18.8429C43.8151 18.158 43.8952 17.958 43.9554 17.978C43.9955 17.988 44.3263 18.088 44.6822 18.198ZM16.899 28.452C17.6458 29.8619 18.7084 31.6967 19.5355 33.0116C19.7059 33.2816 19.8212 33.5015 19.7961 33.5015C19.4302 33.5015 16.3426 32.9766 15.245 32.7266L14.8941 32.6466L14.9843 32.3367C15.3201 31.2068 16.5732 27.9121 16.6434 27.9921C16.6584 28.0121 16.7737 28.217 16.899 28.452ZM40.121 28.927C40.6272 30.2069 41.4693 32.5966 41.4292 32.6366C41.334 32.7316 36.9783 33.5015 36.5422 33.5015C36.5171 33.5015 36.6374 33.2716 36.8129 32.9866C37.2088 32.3567 37.6098 31.6917 37.6349 31.6267C37.6449 31.5967 37.695 31.5217 37.7401 31.4517C37.8354 31.3167 38.3416 30.4468 38.3416 30.4218C38.3416 30.4118 38.4318 30.2568 38.5421 30.0769C38.6524 29.8969 38.7426 29.7419 38.7426 29.7319C38.7426 29.7219 38.888 29.4569 39.0634 29.147C39.2388 28.832 39.4543 28.432 39.5446 28.257L39.705 27.9371L39.8052 28.157C39.8553 28.277 40.0007 28.622 40.121 28.927ZM14.7888 35.1764C16.4228 35.5414 18.7987 35.9113 20.8738 36.1313L21.6757 36.2163L21.9464 36.5963C22.2872 37.0662 22.9188 37.9161 22.9539 37.9511C22.9689 37.9661 23.1243 38.1661 23.2997 38.3961C23.4751 38.6261 23.6456 38.851 23.6806 38.896C23.7207 38.941 23.8561 39.111 23.9914 39.276C24.3473 39.721 25.7658 41.3908 26.0114 41.6508C26.1266 41.7758 26.267 41.9258 26.3221 41.9858L26.4224 42.0957L25.9813 42.5107C25.1292 43.3156 24.4977 43.8556 23.7308 44.4455C23.4 44.7005 23.0892 44.9405 23.0441 44.9755C22.994 45.0155 22.5779 45.2954 22.1168 45.6054C20.578 46.6253 18.9039 47.3502 17.6859 47.5302C16.2173 47.7452 15.1447 47.3552 14.3828 46.3253C13.9819 45.7804 13.6009 44.7655 13.4255 43.7606C13.3252 43.2106 13.3102 42.9407 13.3102 41.7258C13.3052 39.9459 13.3553 39.321 13.631 37.6912C13.7563 36.9712 14.1723 35.0514 14.2074 35.0514C14.2124 35.0514 14.4731 35.1064 14.7888 35.1764ZM42.2462 35.4864C42.552 36.7862 42.7775 38.0461 42.9329 39.276C43.0432 40.1709 43.0833 42.2257 43.0031 42.9807C42.8176 44.7855 42.3464 46.0104 41.5395 46.7803C41.1936 47.1153 40.938 47.2703 40.4618 47.4352C40.111 47.5552 39.9957 47.5652 39.3942 47.5652C38.9331 47.5652 38.5922 47.5402 38.3216 47.4802C36.041 46.9803 33.3143 45.2804 30.3971 42.5507C30.1515 42.3207 29.946 42.1157 29.946 42.0957C29.946 42.0757 30.1215 41.8708 30.337 41.6358C30.5525 41.4008 30.7781 41.1458 30.8382 41.0658C30.8984 40.9908 30.9585 40.9159 30.9786 40.9009C31.1339 40.7809 33.1238 38.3161 33.605 37.6512C33.7153 37.5012 33.8356 37.3412 33.8656 37.3012C33.9308 37.2262 34.1263 36.9512 34.4621 36.4713L34.6375 36.2163L35.249 36.1563C37.2239 35.9613 39.2789 35.6463 41.1485 35.2564C41.6598 35.1514 42.0908 35.0614 42.1109 35.0564C42.1259 35.0564 42.1911 35.2464 42.2462 35.4864ZM31.2292 36.6512C31.159 36.7462 31.0738 36.8562 31.0387 36.9012C31.0036 36.9412 30.8382 37.1562 30.6628 37.3762C30.4924 37.5962 30.337 37.7861 30.3219 37.8011C30.3069 37.8161 30.2067 37.9361 30.0964 38.0761C29.7957 38.4561 28.3972 40.0609 28.2669 40.1759L28.1566 40.2759L27.8308 39.9259C27.6504 39.736 27.4098 39.466 27.2945 39.331C27.1842 39.191 26.9988 38.981 26.8885 38.856C26.4825 38.3961 25.9763 37.7761 25.2996 36.9012L24.9738 36.4763H28.1667H31.3595L31.2292 36.6512Z" fill="#FE61B2"/>
<path d="M27.7408 19.9879C26.2572 20.1679 25.1144 20.7728 24.2623 21.8327C23.4954 22.7777 23.1445 23.7876 23.1445 25.0024C23.1445 25.9974 23.3601 26.7773 23.8513 27.5872C24.142 28.0672 24.2322 28.1822 24.6683 28.6121C25.8361 29.767 27.5654 30.267 29.1944 29.922C30.7532 29.592 32.0213 28.5971 32.708 27.1722C33.7455 25.0124 33.109 22.4127 31.1993 20.9878C30.2169 20.2529 28.8285 19.8529 27.7408 19.9879Z" fill="#FE61B2"/>
</svg>
