<svg width="67" height="50" viewBox="0 0 67 50" fill="none" xmlns="http://www.w3.org/2000/svg">
<path d="M28.3752 0.0358162C25.509 0.285957 23.1275 0.853981 20.1415 1.99003C15.6494 3.69932 11.5898 5.87241 8.31194 8.31649C7.03518 9.27015 6.10237 10.0779 4.91941 11.2608C3.64787 12.5376 2.9183 13.4131 2.11055 14.6273C0.703518 16.7483 0 18.6869 0 20.4431C0 20.9694 0.0260562 21.1778 0.151126 21.6781C0.588871 23.4135 1.63633 25.0915 3.39252 26.8789C4.70575 28.213 6.14927 29.3595 9.09362 31.4023C11.569 33.122 12.7728 34.0027 12.9604 34.232C13.0125 34.2893 12.877 34.3779 12.2308 34.7167C7.59278 37.119 4.29407 39.6882 3.11111 41.8092C2.51703 42.8723 2.13661 44.2793 2.13661 45.3789C2.13661 47.2184 3.08506 49.0424 4.33054 49.5895C5.0966 49.9283 6.96222 50.1002 8.18165 49.9387C12.038 49.428 15.4044 46.7755 16.8532 43.0963C17.072 42.5283 17.3639 41.4444 17.4941 40.7096C17.6244 39.954 17.6244 37.6871 17.4941 36.9835C17.3587 36.2383 17.2127 35.7016 17.0095 35.2117C16.9105 34.9668 16.8271 34.7479 16.8167 34.7219C16.8011 34.6437 20.3603 32.5748 20.4177 32.6269C20.4281 32.6374 20.3655 32.8771 20.277 33.1533C19.9643 34.1278 19.6777 35.8319 19.6151 37.1347C19.5057 39.2973 20.3186 41.9915 21.4599 43.2422C21.9341 43.7634 22.45 43.9458 23.3255 43.9041C23.732 43.8832 23.904 43.852 24.1281 43.7477C24.5085 43.5758 24.9931 43.1224 25.3214 42.6221C25.681 42.0906 26.5982 40.2406 27.1506 38.9534C27.3903 38.3854 27.5935 37.932 27.604 37.9372C27.6092 37.9476 27.5935 38.1613 27.5675 38.4166C27.5414 38.6772 27.5154 39.2348 27.5154 39.6673C27.5154 41.7831 28.073 42.8723 29.2247 43.013C29.9334 43.0963 30.8141 42.4762 31.6739 41.3037C32.143 40.6575 34.3838 36.4572 35.3375 34.43C36.0097 32.9969 36.6455 31.5586 37.3177 29.9223C37.7503 28.8905 37.8857 28.6039 37.9066 28.6977C37.9222 28.7706 37.9848 29.0625 38.0473 29.3491C38.1932 30.037 38.5267 31.2095 38.7248 31.7358C38.8134 31.9703 39.1156 32.6322 39.3918 33.2054L39.8973 34.2529L39.5742 34.6906C38.8863 35.6182 38.73 35.8214 38.1984 36.4572C37.8962 36.8168 37.2656 37.5724 36.7966 38.13C35.301 39.9175 35.0404 40.3083 34.9831 40.8659C34.931 41.3558 35.228 41.7779 35.7543 41.9603C36.2755 42.1479 37.4063 42.101 38.4381 41.8561C39.0531 41.7101 40.1422 41.2932 40.6998 40.9858C42.3987 40.0582 43.3159 38.8909 43.5921 37.3014C43.7745 36.2592 43.6025 35.045 43.0814 33.7317L42.9094 33.2992L43.5139 32.3924C44.4832 30.9333 45.4837 29.2188 46.5104 27.2646L46.8699 26.5871L46.9846 27.1343C47.3181 28.7341 47.6308 29.6826 48.2353 30.9281L48.6678 31.8296L48.475 31.9912C48.3708 32.0798 47.9539 32.4862 47.5526 32.8875C45.9371 34.5082 45.0408 36.0924 44.8167 37.7131C44.7177 38.4479 44.8949 39.1462 45.2701 39.4902C45.3483 39.5683 45.5202 39.683 45.6505 39.7507C45.859 39.8602 45.9528 39.8758 46.4582 39.8758C47.0106 39.8706 47.0575 39.8602 47.7089 39.6204C49.0222 39.1358 49.8351 38.6772 50.7367 37.9164C51.6174 37.1711 52.1802 36.3947 52.4824 35.4983C52.5919 35.1752 52.6075 35.0397 52.6075 34.3258C52.6075 33.6171 52.5867 33.4503 52.4616 32.9709C52.3834 32.6686 52.274 32.2934 52.2167 32.1371C52.1593 31.9807 52.1333 31.8348 52.1541 31.814C52.2219 31.7462 53.0557 31.4753 53.6185 31.3346C54.6816 31.0636 55.161 31.0167 56.6983 31.0167C58.2357 31.0219 58.835 31.0792 59.9293 31.3346C62.5766 31.9547 64.3901 33.3669 65.0363 35.3107C65.5835 36.9419 65.0155 38.3854 63.4208 39.4485C62.9779 39.7403 62.8997 39.8237 62.8997 39.9852C62.8997 40.5793 64.1452 40.178 65.2291 39.24C65.8597 38.6928 66.3913 37.7913 66.5789 36.9575C66.6883 36.452 66.7039 35.514 66.6049 34.9512C66.162 32.4393 64.0618 30.235 61.2165 29.297C59.9502 28.8801 58.9288 28.7289 57.4279 28.7289C56.2919 28.7289 55.7707 28.781 54.692 28.9895C53.6706 29.1927 52.3105 29.6357 51.5913 30.0005L51.3881 30.1047L51.2265 29.8024C50.9191 29.2448 50.351 28.0463 50.2156 27.6554C49.9915 27.0353 49.856 25.9566 49.8872 25.0237C49.9185 24.1378 50.0436 23.549 50.4709 22.2878C50.7419 21.4853 50.7419 21.3759 50.4605 21.1466C50.1374 20.8756 49.7413 20.8078 48.7408 20.8443C47.6204 20.886 46.9012 21.0476 46.6302 21.3133C46.5208 21.428 46.328 22.0116 46.0726 23.033C45.958 23.4864 45.7652 24.0805 45.6505 24.3619C45.1711 25.4928 43.7953 28.0567 42.4821 30.2819L41.9297 31.2199L41.6014 30.5424C41.1793 29.6617 41.0802 29.3439 40.9552 28.4632C40.7936 27.3688 40.8353 26.4568 41.0802 25.5188C41.1845 25.1332 41.3616 24.5339 41.4763 24.1899C41.5962 23.8512 41.69 23.5229 41.69 23.4708C41.69 23.4135 41.6014 23.2832 41.4919 23.1737C41.2001 22.8767 40.8562 22.7985 39.965 22.8037C38.9697 22.809 38.261 22.9288 37.7763 23.1737C37.5574 23.2884 37.5314 23.3457 37.3125 24.1899C37.0207 25.3208 36.9008 25.6178 35.5667 28.6456C32.2993 36.0507 30.8558 39.0733 30.6473 38.943C30.564 38.8909 30.5327 38.2134 30.59 37.6923C30.6786 36.8272 31.1163 34.9095 31.8355 32.2413C32.0075 31.5951 32.1846 30.9281 32.2315 30.7561C32.4661 29.8493 32.2263 29.4272 31.3352 29.1927C30.9496 29.0937 30.6525 29.1354 30.3659 29.3282C30.2461 29.4116 30.1314 29.4794 30.1158 29.4794C30.0949 29.4794 30.1054 29.3699 30.1314 29.2292C30.2252 28.7967 30.2044 27.4157 30.1054 27.0144C29.7145 25.4458 28.4742 24.9091 26.692 25.5449C25.3319 26.0347 23.4714 27.4678 22.4084 28.8488L22.0696 29.2917L19.9851 30.4278C18.8386 31.0584 17.4889 31.7931 16.9887 32.0693C16.4884 32.3455 15.9464 32.6426 15.7849 32.7312L15.4878 32.8927L14.8156 32.2413C14.0026 31.4492 13.3199 30.8812 11.7514 29.6617C11.0947 29.151 10.2714 28.5101 9.92742 28.2339C6.84758 25.7898 5.54998 24.1118 5.0966 22.0012C4.98716 21.4905 5.01322 20.2294 5.14871 19.5363C5.94603 15.508 10.2036 11.4797 17.7182 7.65987C21.2931 5.84636 24.6909 4.72073 28.0209 4.25692C32.8465 3.58467 36.9634 4.62692 37.99 6.77917C38.287 7.40973 38.3756 7.81621 38.3756 8.60832C38.3808 9.6662 38.1515 10.5625 37.5731 11.7403C35.8065 15.3621 31.5489 18.5618 26.6659 19.9428C23.435 20.8547 20.6365 20.959 18.6094 20.245C17.6088 19.8907 16.9939 19.5207 16.2747 18.838C16.0089 18.5826 15.7484 18.3794 15.6963 18.3794C15.6389 18.3794 15.5399 18.4263 15.4722 18.4784C15.368 18.5618 15.3471 18.6243 15.3523 18.8588C15.3784 19.8959 16.6656 21.3081 18.3175 22.1054C19.0106 22.439 19.5005 22.6057 20.2248 22.7464C21.2515 22.9497 21.7205 22.9914 23.19 22.9861C25.1807 22.9861 26.5513 22.8142 28.6097 22.3087C31.9345 21.4905 34.462 20.2502 36.7132 18.3221C37.3386 17.7905 38.4381 16.6545 38.9541 16.0083C39.9233 14.7941 40.8666 13.1577 41.346 11.8497C42.2528 9.38479 42.2215 6.65931 41.2731 4.80931C40.976 4.23087 40.6529 3.78791 40.1318 3.25116C38.5476 1.61482 36.1296 0.572575 32.9142 0.13483C32.0231 0.0149727 29.308 -0.0423508 28.3752 0.0358162ZM28.3023 28.0775C28.4065 28.1818 28.4117 28.2287 28.3857 28.5882C28.3231 29.3595 27.6926 31.5274 26.9421 33.5441C26.4366 34.899 25.6185 36.9731 25.3058 37.6871C24.7274 39.0055 24.1593 39.8497 23.8467 39.8497C23.5705 39.8497 23.2995 39.313 23.1275 38.4427C23.0337 37.932 23.0493 36.254 23.1588 35.5035C23.2682 34.7271 23.534 33.6744 23.7893 32.9969C24.0603 32.2674 24.7899 30.8551 25.2745 30.1151C26.1135 28.8332 27.1662 27.9785 27.9219 27.9733C28.1303 27.9681 28.2189 27.9941 28.3023 28.0775ZM49.7465 33.4451C49.8403 33.8047 49.8403 34.6176 49.7413 35.071C49.5902 35.785 49.1108 36.551 48.5271 37.0096C48.2353 37.2389 47.7506 37.5151 47.3546 37.6819C47.1618 37.76 47.1566 37.76 47.1044 37.6402C47.0263 37.4734 47.1878 36.8585 47.5005 36.1237C47.8132 35.3941 48.0373 34.9928 48.4229 34.4665C48.7356 34.0496 49.611 33.1064 49.6475 33.1481C49.658 33.1585 49.7049 33.294 49.7465 33.4451ZM14.6957 35.7641C14.6957 35.7797 14.7426 36.0247 14.7999 36.3061C15.2533 38.5261 14.852 40.6731 13.6535 42.5075C12.2047 44.7118 9.917 46.2074 7.9732 46.2127C6.86842 46.2179 6.36814 45.7489 6.31603 44.6753C6.25349 43.4663 6.80589 42.0697 7.85335 40.7773C8.79137 39.6204 11.0114 37.9059 13.6274 36.3113C14.4925 35.785 14.6957 35.6807 14.6957 35.7641ZM40.6686 37.0826C40.408 37.8851 39.7722 38.672 38.8238 39.3807C38.3339 39.7455 37.7711 40.0321 37.646 39.9852C37.547 39.9487 37.5522 39.9435 38.7091 38.672C39.1469 38.1873 39.7931 37.4265 40.1422 36.9835L40.778 36.1758L40.7936 36.4103C40.804 36.5614 40.7624 36.7959 40.6686 37.0826Z" fill="#FE61B2"/>
</svg>
