<svg width="51" height="50" viewBox="0 0 51 50" fill="none" xmlns="http://www.w3.org/2000/svg">
<path d="M22.0757 0.0931625C19.256 0.35751 16.2209 1.28762 13.4501 2.71705C6.54776 6.29063 1.63286 12.958 0.291543 20.5458C0.0174056 22.1025 -0.0902914 25.96 0.08594 27.8594C1.01605 37.7283 8.45693 46.491 18.179 49.1736C20.3525 49.7806 21.498 49.9373 24.2003 49.9862C27.813 50.0645 29.8495 49.8198 32.5125 48.9778C41.2653 46.2168 47.8348 38.8934 49.6265 29.8958C49.9007 28.5252 50.0182 27.2622 50.0965 25.0495C50.2433 20.3891 49.4895 15.6407 47.5313 8.77745C46.7775 6.14377 45.7201 2.88349 45.5928 2.80517C45.5243 2.766 45.3676 3.01077 45.1718 3.44156C44.6431 4.62622 43.0668 7.32844 42.9102 7.32844C42.8808 7.32844 42.4696 6.96618 41.9898 6.51582C38.0246 2.88349 32.8748 0.553322 27.7543 0.0833702C26.5011 -0.0341148 23.3485 -0.0243263 22.0757 0.0931625ZM45.9452 7.76902C47.3355 12.2629 48.0796 15.484 48.5887 19.2241C48.8726 21.3682 48.902 25.9698 48.6279 27.6929C47.4628 35.0065 43.6249 39.4417 37.0847 41.0474C33.8049 41.8502 30.339 42.0264 22.6338 41.7817C20.3232 41.7131 18.8742 41.7131 17.6993 41.7915C16.779 41.8404 16.0055 41.8698 15.9761 41.8502C15.937 41.8012 18.4923 40.969 22.3205 39.7844C27.0298 38.3256 29.8984 36.8766 33.0902 34.3506C34.4608 33.2736 37.1337 30.5616 38.2204 29.1615C39.8848 27.0174 41.3828 24.4718 42.1954 22.4158C42.5577 21.4955 43.2724 18.9891 43.2724 18.6366C43.2724 18.3037 43.0864 18.5387 42.8318 19.1947C42.2346 20.7416 41.1087 22.7683 40.0611 24.1683C39.7674 24.5697 39.0135 25.4705 38.3869 26.1656C34.4608 30.542 29.2914 33.9394 23.9359 35.6527C21.5274 36.4262 17.1706 37.5325 13.3033 38.3549L11.962 38.6291L11.3941 38.3256C10.6304 37.9242 9.4262 36.7199 8.92688 35.8583C8.01635 34.3212 7.60514 32.696 7.60514 30.6301C7.60514 27.1838 8.7996 24.3543 11.3452 21.8088C12.52 20.6437 13.7243 19.7919 15.2125 19.0772C17.6503 17.9219 19.5105 17.5401 23.9947 17.2659C28.1655 17.0212 29.5459 16.8449 31.5726 16.2869C34.5392 15.4742 37.8484 13.7511 40.3842 11.7048C41.6863 10.6573 43.4682 8.73829 44.2906 7.50467C44.692 6.89765 45.0739 6.28084 45.1424 6.12419C45.2109 5.97733 45.2991 5.88921 45.3284 5.92838C45.3676 5.97733 45.6515 6.79974 45.9452 7.76902ZM10.7381 40.3327C11.7074 40.8026 12.1774 41.9285 11.7955 42.8488C11.4039 43.7692 10.3465 44.3664 9.49473 44.1412C8.25132 43.8083 7.56598 42.6237 7.97719 41.5369C8.43735 40.3327 9.65139 39.804 10.7381 40.3327Z" fill="#FE61B2"/>
</svg>
