<svg width="50" height="50" viewBox="0 0 50 50" fill="none" xmlns="http://www.w3.org/2000/svg">
<path d="M0.138889 0.104755C0.0595238 0.164558 0 11.4274 0 25.1221V50H25H50L49.9603 25.0424L49.9008 0.0648842L25.0794 0.00508118C11.4286 -0.0148506 0.198413 0.0250168 0.138889 0.104755ZM40.6746 23.3281C41.0516 23.4477 41.6865 23.7467 42.0833 24.0058C42.9167 24.5241 44.2857 26.0591 44.1865 26.3581C44.1667 26.4777 43.4325 27.0358 42.5794 27.6139L41.0119 28.6505L40.2976 27.8531C38.6111 25.9594 35.7143 26.6371 35.7143 28.9296C35.7143 30.0858 36.6865 30.9429 39.246 32.0393C40.377 32.5177 41.8056 33.2354 42.4206 33.654C43.5913 34.4115 45.0397 35.8667 45.0397 36.3052C45.0397 36.4647 45.0992 36.4647 45.2183 36.2654C45.3571 36.066 45.3968 36.1059 45.3968 36.4647C45.377 36.7238 45.4762 37.4813 45.5754 38.1392C45.9722 40.4117 45.2778 42.6842 43.8095 43.94C42.2421 45.2756 39.4048 45.9733 36.8651 45.6543C35.9921 45.5547 35.4564 45.5547 35.3175 45.6942C35.2183 45.7939 35.119 45.8338 35.119 45.754C35.119 45.4151 34.9603 45.2955 33.9683 44.8969C32.6786 44.3586 31.3492 43.2822 30.5556 42.126L29.9603 41.2489L30.754 40.7904C31.1905 40.5313 31.5476 40.2123 31.5476 40.0728C31.5476 39.9133 31.6667 39.8336 31.8056 39.8934C31.9246 39.9332 32.3611 39.8136 32.7579 39.5944L33.4722 39.1957L34.3452 40.1326C35.4365 41.3286 36.5873 41.8669 38.0952 41.8669C40.0992 41.8669 41.2698 40.9499 41.2698 39.3551C41.2698 38.2189 40.6349 37.7006 37.3413 36.1059C34.127 34.551 32.619 33.4347 32.1429 32.2586C32.004 31.9396 31.8452 31.7004 31.7659 31.7403C31.6865 31.8001 31.6071 31.6805 31.5873 31.5011C31.4683 30.8433 31.4087 26.677 31.5079 26.7767C31.5675 26.8365 31.8651 26.4179 32.1825 25.8796C33.0159 24.4045 34.623 23.3879 36.7064 23.0291C37.4405 22.8895 39.8611 23.0889 40.6746 23.3281ZM28.373 25.0823V27.0757H25.1984H22.0238V36.2255V45.3952L19.8413 45.455L17.6587 45.5148V36.2853V27.0757H14.3651H11.0913L11.131 25.2218L11.1706 23.3879L19.7222 23.2882C24.4246 23.2284 28.2937 23.1686 28.3333 23.1287C28.3532 23.1088 28.373 23.9859 28.373 25.0823Z" fill="#FE61B2"/>
</svg>
